<svg xmlns="http://www.w3.org/2000/svg" xmlns:xlink="http://www.w3.org/1999/xlink" width="1080" zoomAndPan="magnify" viewBox="0 0 810 809.999993" height="1080" preserveAspectRatio="xMidYMid meet" version="1.0"><defs><clipPath id="2e3c905277"><path d="M 159.621094 126 L 650.121094 126 L 650.121094 684 L 159.621094 684 Z M 159.621094 126 " clip-rule="nonzero"/></clipPath></defs><g clip-path="url(#2e3c905277)"><path fill="#e44d26" d="M 204.148438 628.019531 L 159.480469 126.574219 L 650.261719 126.574219 L 605.558594 627.953125 L 404.558594 683.699219 Z M 204.148438 628.019531 " fill-opacity="1" fill-rule="nonzero"/></g><path fill="#f16529" d="M 567.273438 596.019531 L 605.488281 167.574219 L 404.871094 167.574219 L 404.871094 641.097656 Z M 567.273438 596.019531 " fill-opacity="1" fill-rule="nonzero"/><path fill="#ebebeb" d="M 404.664062 229.070312 L 250.796875 229.070312 L 267.375 415.050781 L 404.871094 415.050781 L 404.871094 353.558594 L 323.574219 353.558594 L 317.957031 290.582031 L 404.871094 290.582031 L 404.871094 229.070312 Z M 404.871094 513.074219 L 404.609375 513.144531 L 336.183594 494.65625 L 331.835938 445.609375 L 270.121094 445.609375 L 278.734375 542.167969 L 404.59375 576.988281 L 404.871094 576.902344 Z M 404.871094 513.074219 " fill-opacity="1" fill-rule="nonzero"/><path fill="#ffffff" d="M 404.664062 415.050781 L 480.324219 415.050781 L 473.367188 494.792969 L 404.835938 513.300781 L 404.835938 577.285156 L 530.800781 542.34375 L 547.671875 353.523438 L 404.871094 353.523438 Z M 557.101562 245.574219 L 558.5625 229.070312 L 404.628906 229.070312 L 404.628906 290.566406 L 553.03125 290.566406 L 554.246094 276.742188 Z M 557.101562 245.574219 " fill-opacity="1" fill-rule="nonzero"/></svg>