<svg xmlns="http://www.w3.org/2000/svg" xmlns:xlink="http://www.w3.org/1999/xlink" width="1080" zoomAndPan="magnify" viewBox="0 0 810 809.999993" height="1080" preserveAspectRatio="xMidYMid meet" version="1.0"><defs><clipPath id="f6488668d7"><path d="M 156.691406 157 L 651 157 L 651 653 L 156.691406 653 Z M 156.691406 157 " clip-rule="nonzero"/></clipPath></defs><g clip-path="url(#f6488668d7)"><path fill="#3747d6" d="M 179.15625 157.8125 C 172.710938 157.8125 166.578125 160.582031 162.316406 165.410156 C 158.050781 170.242188 156.066406 176.671875 156.863281 183.066406 L 201.796875 542.523438 C 202.726562 549.976562 207.324219 556.472656 214.042969 559.832031 L 393.769531 649.695312 C 400.09375 652.859375 407.539062 652.859375 413.863281 649.695312 L 593.59375 559.832031 C 600.3125 556.472656 604.90625 549.976562 605.839844 542.523438 L 650.769531 183.066406 C 651.570312 176.671875 649.585938 170.242188 645.320312 165.410156 C 641.054688 160.582031 634.921875 157.8125 628.476562 157.8125 Z M 179.15625 157.8125 " fill-opacity="1" fill-rule="nonzero"/></g><path fill="#90caea" d="M 269.023438 225.210938 L 561.082031 225.210938 C 571.5 225.210938 580.554688 232.375 582.945312 242.515625 C 585.339844 252.65625 580.449219 263.113281 571.128906 267.773438 L 409.121094 348.777344 L 538.617188 348.777344 C 545.277344 348.777344 551.59375 351.730469 555.863281 356.847656 C 560.132812 361.960938 561.910156 368.707031 560.71875 375.261719 L 538.25 498.824219 C 537.09375 505.1875 533.253906 510.742188 527.707031 514.070312 L 415.378906 581.46875 C 408.261719 585.734375 399.375 585.734375 392.261719 581.46875 L 279.929688 514.070312 C 274.285156 510.679688 270.410156 504.992188 269.328125 498.5 L 258.09375 431.101562 L 302.414062 423.714844 L 311.941406 480.878906 L 403.820312 536.003906 L 495.863281 480.773438 L 511.695312 393.707031 L 313.953125 393.707031 C 303.535156 393.707031 294.484375 386.542969 292.089844 376.402344 C 289.695312 366.261719 294.589844 355.808594 303.90625 351.148438 L 465.914062 270.144531 L 269.023438 270.144531 Z M 269.023438 225.210938 " fill-opacity="1" fill-rule="evenodd"/></svg>