<svg xmlns="http://www.w3.org/2000/svg" xmlns:xlink="http://www.w3.org/1999/xlink" width="1080" zoomAndPan="magnify" viewBox="0 0 810 809.999993" height="1080" preserveAspectRatio="xMidYMid meet" version="1.0"><defs><clipPath id="a9c941dd06"><path d="M 184.964844 184.964844 L 625.214844 184.964844 L 625.214844 625.214844 L 184.964844 625.214844 Z M 184.964844 184.964844 " clip-rule="nonzero"/></clipPath></defs><g clip-path="url(#a9c941dd06)"><path fill="#eee400" d="M 522.375 590.699219 C 483.964844 590.699219 459.128906 572.386719 447.019531 548.4375 L 480.699219 528.925781 C 489.574219 543.417969 501.082031 554.046875 521.484375 554.046875 C 538.609375 554.046875 549.546875 545.476562 549.546875 533.652344 C 549.546875 515.875 525.816406 508.910156 509.070312 501.742188 C 479.21875 489.039062 459.410156 473.074219 459.410156 439.378906 C 459.410156 408.355469 483.050781 384.726562 520.015625 384.726562 C 546.296875 384.726562 565.226562 393.882812 578.804688 417.804688 L 546.597656 438.496094 C 539.507812 425.792969 531.832031 420.773438 520.003906 420.773438 C 507.882812 420.773438 500.195312 428.460938 500.195312 438.496094 C 500.195312 450.910156 507.871094 455.929688 525.613281 463.617188 C 562.789062 479.546875 590.921875 492.074219 590.921875 533.0625 C 590.9375 570.316406 561.6875 590.699219 522.375 590.699219 Z M 427.105469 528.34375 C 427.105469 571.199219 400.707031 593.851562 364.058594 593.851562 C 330.953125 593.851562 311.125 581.191406 301.367188 559.179688 L 300.796875 559.179688 L 334.449219 535.652344 C 340.945312 547.160156 346.800781 555.332031 360.976562 555.332031 C 374.582031 555.332031 383.078125 548.445312 383.078125 527.773438 L 383.078125 383.078125 L 427.105469 383.078125 Z M 184.964844 625.214844 L 625.214844 625.214844 L 625.214844 184.964844 L 184.964844 184.964844 Z M 184.964844 625.214844 " fill-opacity="1" fill-rule="evenodd"/></g></svg>