<svg xmlns="http://www.w3.org/2000/svg" xmlns:xlink="http://www.w3.org/1999/xlink" width="1080" zoomAndPan="magnify" viewBox="0 0 810 809.999993" height="1080" preserveAspectRatio="xMidYMid meet" version="1.0"><defs><clipPath id="425d0b60c8"><path d="M 154.40625 154.40625 L 655.40625 154.40625 L 655.40625 655.40625 L 154.40625 655.40625 Z M 154.40625 154.40625 " clip-rule="nonzero"/></clipPath></defs><g clip-path="url(#425d0b60c8)"><path fill="#cc4342" d="M 404.929688 154.351562 L 655.449219 404.828125 L 404.929688 655.351562 L 154.449219 404.828125 Z M 404.929688 154.351562 " fill-opacity="1" fill-rule="evenodd"/></g><path fill="#923030" d="M 305.050781 254.226562 L 321.585938 237.695312 L 378.453125 294.597656 C 382.683594 292.546875 387.449219 291.378906 392.46875 291.378906 C 410.171875 291.378906 424.535156 305.742188 424.535156 323.476562 C 424.535156 328.5 423.367188 333.230469 421.316406 337.460938 L 472.472656 388.617188 C 476.414062 386.882812 480.746094 385.933594 485.324219 385.933594 C 503.023438 385.933594 517.386719 400.261719 517.386719 418 C 517.386719 435.699219 503.023438 450.0625 485.324219 450.0625 C 467.621094 450.0625 453.257812 435.699219 453.257812 418 C 453.257812 413.421875 454.203125 409.070312 455.941406 405.117188 L 404.148438 353.359375 L 404.148438 504.996094 C 416.074219 509.671875 424.535156 521.28125 424.535156 534.875 C 424.535156 552.578125 410.171875 566.941406 392.46875 566.941406 C 374.769531 566.941406 360.40625 552.578125 360.40625 534.875 C 360.40625 521.273438 368.867188 509.660156 380.757812 504.996094 L 380.757812 353.324219 C 368.855469 348.648438 360.40625 337.039062 360.40625 323.464844 C 360.40625 319.335938 361.164062 315.382812 362.589844 311.785156 Z M 305.050781 254.226562 " fill-opacity="1" fill-rule="evenodd"/><path fill="#e6e6e6" d="M 317.507812 241.769531 L 334.042969 225.238281 L 390.945312 282.140625 C 395.175781 280.089844 399.90625 278.921875 404.929688 278.921875 C 422.628906 278.921875 436.992188 293.285156 436.992188 310.984375 C 436.992188 316.007812 435.855469 320.773438 433.808594 325.003906 L 484.933594 376.125 C 488.875 374.421875 493.238281 373.445312 497.78125 373.445312 C 515.515625 373.445312 529.878906 387.804688 529.878906 405.507812 C 529.878906 423.210938 515.515625 437.570312 497.78125 437.570312 C 480.078125 437.570312 465.714844 423.210938 465.714844 405.507812 C 465.714844 400.933594 466.695312 396.613281 468.398438 392.660156 L 416.640625 340.867188 L 416.640625 492.535156 C 428.566406 497.210938 436.992188 508.824219 436.992188 522.394531 C 436.992188 540.132812 422.628906 554.460938 404.929688 554.460938 C 387.226562 554.460938 372.863281 540.132812 372.863281 522.394531 C 372.863281 508.824219 381.324219 497.210938 393.25 492.535156 L 393.25 340.867188 C 381.324219 336.167969 372.863281 324.578125 372.863281 310.984375 C 372.863281 306.878906 373.65625 302.9375 375.070312 299.304688 Z M 317.507812 241.769531 " fill-opacity="1" fill-rule="evenodd"/></svg>