<svg xmlns="http://www.w3.org/2000/svg" xmlns:xlink="http://www.w3.org/1999/xlink" width="1080" zoomAndPan="magnify" viewBox="0 0 810 809.999993" height="1080" preserveAspectRatio="xMidYMid meet" version="1.0"><defs><clipPath id="a080d533a9"><path d="M 170.457031 186.199219 L 639.207031 186.199219 L 639.207031 654.949219 L 170.457031 654.949219 Z M 170.457031 186.199219 " clip-rule="nonzero"/></clipPath></defs><g clip-path="url(#a080d533a9)"><path fill="#000000" d="M 404.832031 186.199219 C 275.390625 186.199219 170.457031 291.136719 170.457031 420.574219 C 170.457031 550.015625 275.390625 654.949219 404.832031 654.949219 C 534.273438 654.949219 639.207031 550.015625 639.207031 420.574219 C 639.207031 291.136719 534.273438 186.199219 404.832031 186.199219 Z M 404.832031 637.199219 C 285.195312 637.199219 188.210938 540.210938 188.210938 420.574219 C 188.210938 300.9375 285.195312 203.953125 404.832031 203.953125 C 524.46875 203.953125 621.457031 300.9375 621.457031 420.574219 C 621.457031 540.214844 524.46875 637.199219 404.832031 637.199219 Z M 404.832031 637.199219 " fill-opacity="1" fill-rule="nonzero"/></g><path fill="#000000" d="M 377.324219 535.460938 C 371.445312 536.023438 366.75 536.671875 362.035156 536.894531 C 335.292969 538.160156 315.496094 527.613281 303.488281 503.03125 C 299.664062 495.203125 294.769531 487.8125 289.671875 480.71875 C 286.609375 476.460938 282.320312 473.039062 278.359375 469.488281 L 278.308594 469.445312 C 275.859375 467.289062 276.941406 463.257812 280.160156 462.71875 C 283.9375 462.082031 287.460938 462.765625 290.894531 463.640625 C 301.648438 466.375 308.546875 474 314.046875 483.117188 C 326.484375 503.734375 347.902344 512.335938 371.058594 506.191406 C 374.992188 505.148438 376.722656 503.457031 377.582031 499.167969 C 378.578125 494.167969 379.933594 489.238281 381.394531 484.210938 C 381.609375 483.472656 381.746094 482.71875 381.808594 481.949219 C 381.867188 481.179688 381.851562 480.414062 381.757812 479.648438 C 381.664062 478.882812 381.492188 478.136719 381.246094 477.40625 C 381 476.675781 380.679688 475.980469 380.292969 475.3125 C 379.90625 474.648438 379.453125 474.027344 378.9375 473.453125 C 378.421875 472.878906 377.855469 472.363281 377.238281 471.90625 C 376.617188 471.449219 375.957031 471.054688 375.257812 470.730469 C 374.558594 470.40625 373.835938 470.15625 373.085938 469.980469 L 372.957031 469.949219 C 348.925781 464.199219 328.167969 453.496094 314.792969 431.535156 C 307.640625 419.792969 304.101562 406.859375 304.285156 393.382812 C 304.488281 378.09375 305.84375 362.773438 307.597656 347.570312 C 308.835938 336.863281 313.792969 327.382812 321.492188 319.6875 C 324.175781 317.003906 324.402344 314.753906 323.105469 311.28125 C 317.808594 297.058594 318.726562 282.804688 323.433594 268.546875 C 324.757812 264.527344 326.644531 263.953125 330.492188 265.164062 C 342.398438 268.910156 351.28125 276.65625 359.085938 285.9375 L 359.167969 286.03125 C 359.65625 286.617188 360.183594 287.164062 360.753906 287.671875 C 361.320312 288.175781 361.925781 288.640625 362.5625 289.058594 C 363.199219 289.472656 363.867188 289.839844 364.558594 290.160156 C 365.253906 290.476562 365.964844 290.742188 366.695312 290.953125 C 367.429688 291.164062 368.171875 291.320312 368.929688 291.421875 C 369.683594 291.523438 370.445312 291.566406 371.207031 291.554688 C 371.96875 291.542969 372.726562 291.472656 373.476562 291.347656 C 374.230469 291.222656 374.96875 291.042969 375.691406 290.808594 C 400.398438 282.703125 437.886719 282.597656 461.1875 290.617188 C 461.917969 290.863281 462.660156 291.054688 463.417969 291.191406 C 464.171875 291.324219 464.9375 291.402344 465.703125 291.421875 C 466.472656 291.445312 467.238281 291.40625 468 291.3125 C 468.765625 291.21875 469.515625 291.066406 470.257812 290.859375 C 470.996094 290.648438 471.714844 290.386719 472.417969 290.070312 C 473.117188 289.753906 473.789062 289.386719 474.4375 288.96875 C 475.082031 288.550781 475.691406 288.085938 476.265625 287.578125 C 476.839844 287.066406 477.375 286.515625 477.867188 285.925781 L 477.941406 285.835938 C 485.761719 276.558594 494.683594 268.871094 506.582031 265.113281 C 510.574219 263.851562 512.277344 264.8125 513.539062 268.695312 C 518.183594 282.957031 518.972656 297.125 513.953125 311.496094 C 513.246094 313.519531 513.273438 317.039062 514.53125 318.316406 C 525.199219 329.140625 529.871094 342.574219 531.054688 357.128906 C 532.199219 371.191406 533.441406 385.492188 532.136719 399.457031 C 528.738281 435.773438 506.65625 456.921875 473.082031 467.4375 C 470.207031 468.335938 467.289062 469.09375 464.308594 469.796875 C 463.535156 469.980469 462.785156 470.242188 462.066406 470.582031 C 461.347656 470.921875 460.667969 471.332031 460.035156 471.8125 C 459.402344 472.296875 458.824219 472.839844 458.304688 473.441406 C 457.785156 474.042969 457.335938 474.695312 456.949219 475.394531 C 456.566406 476.089844 456.261719 476.820312 456.03125 477.582031 C 455.800781 478.34375 455.652344 479.125 455.585938 479.917969 C 455.519531 480.710938 455.535156 481.5 455.636719 482.292969 C 455.734375 483.082031 455.914062 483.851562 456.175781 484.605469 C 460.75 497.859375 460.050781 512.019531 459.980469 526.089844 C 459.964844 529.320312 459.953125 532.558594 459.945312 535.796875 C 459.945312 537.132812 459.875 538.464844 459.742188 539.792969 C 459.609375 541.125 459.410156 542.441406 459.148438 543.753906 C 458.882812 545.0625 458.558594 546.355469 458.167969 547.632812 C 457.777344 548.914062 457.324219 550.167969 456.8125 551.402344 C 456.300781 552.636719 455.726562 553.839844 455.09375 555.019531 C 454.464844 556.195312 453.777344 557.339844 453.03125 558.449219 C 452.289062 559.558594 451.492188 560.628906 450.644531 561.660156 C 449.792969 562.691406 448.898438 563.679688 447.949219 564.625 C 447.003906 565.566406 446.015625 566.464844 444.980469 567.308594 C 443.949219 568.15625 442.875 568.949219 441.765625 569.691406 C 440.652344 570.433594 439.507812 571.117188 438.328125 571.746094 C 437.148438 572.375 435.941406 572.945312 434.707031 573.457031 C 433.472656 573.96875 432.21875 574.414062 430.9375 574.804688 C 429.660156 575.191406 428.363281 575.515625 427.054688 575.773438 C 425.746094 576.035156 424.425781 576.230469 423.09375 576.359375 C 421.765625 576.492188 420.433594 576.554688 419.097656 576.554688 L 418.175781 576.554688 C 416.835938 576.554688 415.503906 576.492188 414.171875 576.359375 C 412.839844 576.230469 411.519531 576.03125 410.207031 575.769531 C 408.894531 575.511719 407.597656 575.1875 406.316406 574.796875 C 405.035156 574.410156 403.777344 573.957031 402.542969 573.445312 C 401.304688 572.933594 400.097656 572.363281 398.917969 571.734375 C 397.738281 571.101562 396.59375 570.414062 395.480469 569.671875 C 394.367188 568.929688 393.292969 568.132812 392.257812 567.285156 C 391.226562 566.433594 390.234375 565.539062 389.289062 564.589844 C 388.34375 563.644531 387.445312 562.65625 386.597656 561.621094 C 385.75 560.585938 384.953125 559.511719 384.207031 558.402344 C 383.464844 557.289062 382.777344 556.140625 382.148438 554.960938 C 381.515625 553.78125 380.945312 552.574219 380.433594 551.335938 C 379.921875 550.101562 379.472656 548.84375 379.082031 547.5625 C 378.695312 546.28125 378.371094 544.988281 378.109375 543.675781 C 377.847656 542.363281 377.652344 541.039062 377.519531 539.707031 C 377.390625 538.378906 377.324219 537.042969 377.324219 535.703125 Z M 377.324219 535.460938 " fill-opacity="1" fill-rule="nonzero"/></svg>