<svg xmlns="http://www.w3.org/2000/svg" xmlns:xlink="http://www.w3.org/1999/xlink" width="1080" zoomAndPan="magnify" viewBox="0 0 810 809.999993" height="1080" preserveAspectRatio="xMidYMid meet" version="1.0"><defs><clipPath id="cbd84613eb"><path d="M 206 191.054688 L 635 191.054688 L 635 568 L 206 568 Z M 206 191.054688 " clip-rule="nonzero"/></clipPath><clipPath id="293f1b8556"><path d="M 174.640625 250 L 311 250 L 311 619 L 174.640625 619 Z M 174.640625 250 " clip-rule="nonzero"/></clipPath><clipPath id="9f40364dfb"><path d="M 206 191.054688 L 635 191.054688 L 635 568 L 206 568 Z M 206 191.054688 " clip-rule="nonzero"/></clipPath><clipPath id="e969e6ee79"><path d="M 174.640625 250 L 311 250 L 311 619 L 174.640625 619 Z M 174.640625 250 " clip-rule="nonzero"/></clipPath></defs><path fill="#fdf151" d="M 305.382812 561.917969 L 211.628906 256.332031 L 535.550781 197.28125 L 629.304688 502.867188 Z M 305.382812 561.917969 " fill-opacity="1" fill-rule="nonzero"/><g clip-path="url(#cbd84613eb)"><path fill="#0b122d" d="M 305.378906 567.421875 C 303.007812 567.421875 300.847656 565.878906 300.128906 563.535156 L 206.378906 257.945312 C 205.914062 256.445312 206.121094 254.816406 206.933594 253.472656 C 207.75 252.132812 209.101562 251.199219 210.644531 250.917969 L 534.566406 191.867188 C 537.308594 191.371094 539.984375 193 540.804688 195.664062 L 634.554688 501.253906 C 635.019531 502.753906 634.816406 504.382812 634 505.726562 C 633.183594 507.070312 631.832031 508 630.289062 508.28125 L 306.371094 567.332031 C 306.039062 567.390625 305.707031 567.421875 305.382812 567.421875 Z M 218.699219 260.636719 L 309.203125 555.632812 L 622.234375 498.566406 L 531.730469 203.570312 Z M 218.699219 260.636719 " fill-opacity="1" fill-rule="nonzero"/></g><path fill="#0b122d" d="M 493.597656 446.464844 C 502.75 454.867188 512.320312 462.777344 526.652344 460.164062 C 538.691406 457.96875 543.277344 451.171875 540.882812 443.363281 C 538.015625 434.015625 530.464844 431.890625 515.550781 428.863281 L 507.394531 427.265625 C 483.863281 422.699219 466.703125 414.734375 459.890625 392.535156 C 453.617188 372.074219 465.441406 353.480469 491.382812 348.753906 C 509.855469 345.386719 524.976562 349.003906 539.402344 363.0625 L 520.964844 380.828125 C 513.417969 373.347656 507.023438 371.023438 498.683594 372.546875 C 490.171875 374.097656 486.335938 380.148438 488.367188 386.769531 C 490.878906 394.953125 497.292969 397.277344 511.308594 400.074219 L 519.464844 401.671875 C 547.207031 407.089844 564.246094 414.6875 571.234375 437.46875 C 578.765625 462.019531 562.34375 479.222656 534.753906 484.25 C 507.769531 489.167969 488.527344 479.1875 475.148438 464.925781 L 493.59375 446.460938 Z M 493.597656 446.464844 " fill-opacity="1" fill-rule="nonzero"/><path fill="#0b122d" d="M 521.417969 490.996094 C 502.144531 490.996094 484.96875 483.429688 471.144531 468.695312 C 469.113281 466.53125 469.164062 463.140625 471.265625 461.039062 L 489.710938 442.570312 C 491.789062 440.484375 495.140625 440.414062 497.3125 442.40625 C 506.328125 450.6875 514.148438 456.855469 525.671875 454.75 C 530.492188 453.875 533.910156 452.132812 535.292969 449.855469 C 536.109375 448.507812 536.222656 446.914062 535.628906 444.980469 C 533.789062 438.976562 529.464844 437.300781 514.457031 434.257812 L 506.339844 432.667969 C 484.316406 428.394531 462.804688 420.765625 454.640625 394.148438 C 451.296875 383.257812 452.4375 372.351562 457.851562 363.4375 C 464.089844 353.167969 475.648438 346.03125 490.398438 343.339844 C 511.460938 339.503906 528.25 344.511719 543.234375 359.121094 C 544.300781 360.160156 544.902344 361.589844 544.894531 363.078125 C 544.890625 364.570312 544.285156 365.992188 543.210938 367.027344 L 524.777344 384.792969 C 522.628906 386.863281 519.222656 386.84375 517.101562 384.742188 C 510.003906 377.707031 505.335938 376.929688 499.667969 377.964844 C 496.90625 378.464844 494.867188 379.597656 493.925781 381.140625 C 493.25 382.257812 493.144531 383.609375 493.621094 385.15625 C 495.0625 389.855469 497.835938 391.78125 512.382812 394.679688 L 520.519531 396.273438 C 549.300781 401.898438 568.707031 410.480469 576.488281 435.859375 C 580.03125 447.402344 578.996094 458.292969 573.492188 467.351562 C 566.699219 478.542969 553.292969 486.46875 535.742188 489.667969 C 530.859375 490.558594 526.078125 491 521.417969 491 Z M 482.941406 464.910156 C 496.960938 477.75 514.035156 482.4375 533.773438 478.835938 C 548.1875 476.210938 558.957031 470.101562 564.101562 461.632812 C 567.976562 455.246094 568.613281 447.660156 565.980469 439.089844 C 559.746094 418.769531 544.453125 412.160156 518.410156 407.074219 L 510.253906 405.476562 C 496.585938 402.75 486.652344 399.933594 483.113281 388.386719 C 481.71875 383.835938 482.222656 379.230469 484.53125 375.421875 C 487.125 371.152344 491.800781 368.210938 497.695312 367.132812 C 506.359375 365.558594 513.5 367.414062 520.832031 373.320312 L 531.324219 363.207031 C 520.058594 354.003906 508.109375 351.292969 492.363281 354.167969 C 480.746094 356.285156 471.824219 361.609375 467.242188 369.15625 C 463.425781 375.433594 462.703125 382.960938 465.140625 390.917969 C 471.246094 410.8125 486.863281 417.675781 508.433594 421.863281 L 516.601562 423.464844 C 530.304688 426.242188 542.109375 428.640625 546.132812 441.746094 C 547.660156 446.71875 547.15625 451.5 544.683594 455.574219 C 542.535156 459.113281 537.832031 463.71875 527.636719 465.578125 C 512.527344 468.324219 501.605469 460.832031 493.792969 454.042969 L 482.9375 464.90625 Z M 482.941406 464.910156 " fill-opacity="1" fill-rule="nonzero"/><path fill="#0b122d" d="M 389.5625 466.164062 C 396.472656 473.023438 405.207031 477.679688 415.160156 475.867188 C 424.679688 474.132812 429.070312 469.585938 424.839844 455.789062 L 397.261719 365.902344 L 427.25 360.4375 L 456.160156 454.667969 C 464.929688 483.25 451.347656 499.457031 425.683594 504.132812 C 402.496094 508.363281 381.214844 496.589844 370.171875 484.066406 L 389.5625 466.160156 Z M 389.5625 466.164062 " fill-opacity="1" fill-rule="nonzero"/><path fill="#0b122d" d="M 415.792969 510.535156 C 394.175781 510.535156 375.953125 498.941406 366.050781 487.710938 C 364.070312 485.464844 364.246094 482.050781 366.445312 480.023438 L 385.835938 462.121094 C 387.996094 460.125 391.339844 460.183594 393.429688 462.257812 C 400.195312 468.972656 407.175781 471.726562 414.175781 470.453125 C 417.527344 469.839844 419.601562 468.910156 420.347656 467.683594 C 420.941406 466.707031 421.632812 464.074219 419.585938 457.40625 L 392.007812 367.519531 C 391.546875 366.019531 391.75 364.390625 392.566406 363.046875 C 393.378906 361.703125 394.730469 360.773438 396.277344 360.492188 L 426.265625 355.023438 C 429.011719 354.523438 431.683594 356.15625 432.503906 358.824219 L 461.414062 453.054688 C 465.941406 467.8125 465.199219 480.296875 459.207031 490.164062 C 453.195312 500.058594 441.941406 506.765625 426.667969 509.550781 C 422.964844 510.226562 419.332031 510.535156 415.789062 510.535156 Z M 378.066406 484.261719 C 389.03125 494.300781 406.546875 502.027344 424.703125 498.71875 C 436.800781 496.515625 445.484375 491.578125 449.816406 484.441406 C 454.109375 477.378906 454.472656 467.90625 450.910156 456.28125 L 423.433594 366.722656 L 404.332031 370.207031 L 430.089844 454.171875 C 432.683594 462.621094 432.570312 468.730469 429.738281 473.398438 C 426.433594 478.839844 420.394531 480.5 416.144531 481.273438 C 407.019531 482.941406 397.933594 480.289062 389.621094 473.59375 L 378.070312 484.257812 Z M 378.066406 484.261719 " fill-opacity="1" fill-rule="nonzero"/><path fill="#fdf151" d="M 211.628906 256.332031 L 180.320312 307.742188 L 274.074219 613.328125 L 305.382812 561.917969 Z M 211.628906 256.332031 " fill-opacity="1" fill-rule="nonzero"/><g clip-path="url(#293f1b8556)"><path fill="#0b122d" d="M 274.074219 618.832031 C 273.847656 618.832031 273.617188 618.816406 273.386719 618.789062 C 271.242188 618.519531 269.457031 617.015625 268.820312 614.945312 L 175.066406 309.355469 C 174.605469 307.851562 174.808594 306.21875 175.628906 304.875 L 206.9375 253.464844 C 208.0625 251.617188 210.15625 250.597656 212.3125 250.867188 C 214.457031 251.136719 216.246094 252.644531 216.878906 254.714844 L 310.632812 560.300781 C 311.097656 561.804688 310.894531 563.4375 310.074219 564.78125 L 278.765625 616.191406 C 277.757812 617.84375 275.972656 618.828125 274.074219 618.828125 Z M 186.300781 308.492188 L 275.738281 600.023438 L 299.402344 561.167969 L 209.964844 269.636719 Z M 186.300781 308.492188 " fill-opacity="1" fill-rule="nonzero"/></g><path fill="#fdf151" d="M 629.304688 502.867188 L 597.996094 554.28125 L 274.074219 613.328125 L 305.382812 561.917969 Z M 629.304688 502.867188 " fill-opacity="1" fill-rule="nonzero"/><path fill="#0b122d" d="M 274.074219 618.832031 C 272.285156 618.832031 270.578125 617.953125 269.542969 616.445312 C 268.316406 614.65625 268.253906 612.316406 269.382812 610.464844 L 300.691406 559.054688 C 301.507812 557.714844 302.855469 556.785156 304.398438 556.503906 L 628.320312 497.453125 C 630.449219 497.0625 632.609375 497.96875 633.832031 499.753906 C 635.058594 501.539062 635.121094 503.882812 633.992188 505.730469 L 602.6875 557.140625 C 601.867188 558.480469 600.519531 559.410156 598.976562 559.691406 L 275.058594 618.742188 C 274.730469 618.800781 274.402344 618.828125 274.074219 618.828125 Z M 308.792969 566.890625 L 285.144531 605.71875 L 594.585938 549.3125 L 618.230469 510.480469 Z M 308.792969 566.890625 " fill-opacity="1" fill-rule="nonzero"/><path fill="#fdf151" d="M 305.382812 561.917969 L 211.628906 256.332031 L 535.550781 197.28125 L 629.304688 502.867188 Z M 305.382812 561.917969 " fill-opacity="1" fill-rule="nonzero"/><g clip-path="url(#9f40364dfb)"><path fill="#0b122d" d="M 305.378906 567.421875 C 303.007812 567.421875 300.847656 565.878906 300.128906 563.535156 L 206.378906 257.945312 C 205.914062 256.445312 206.121094 254.816406 206.933594 253.472656 C 207.75 252.132812 209.101562 251.199219 210.644531 250.917969 L 534.566406 191.867188 C 537.308594 191.371094 539.984375 193 540.804688 195.664062 L 634.554688 501.253906 C 635.019531 502.753906 634.816406 504.382812 634 505.726562 C 633.183594 507.070312 631.832031 508 630.289062 508.28125 L 306.371094 567.332031 C 306.039062 567.390625 305.707031 567.421875 305.382812 567.421875 Z M 218.699219 260.636719 L 309.203125 555.632812 L 622.234375 498.566406 L 531.730469 203.570312 Z M 218.699219 260.636719 " fill-opacity="1" fill-rule="nonzero"/></g><path fill="#0b122d" d="M 493.597656 446.464844 C 502.75 454.867188 512.320312 462.777344 526.652344 460.164062 C 538.691406 457.96875 543.277344 451.171875 540.882812 443.363281 C 538.015625 434.015625 530.464844 431.890625 515.550781 428.863281 L 507.394531 427.265625 C 483.863281 422.699219 466.703125 414.734375 459.890625 392.535156 C 453.617188 372.074219 465.441406 353.480469 491.382812 348.753906 C 509.855469 345.386719 524.976562 349.003906 539.402344 363.0625 L 520.964844 380.828125 C 513.417969 373.347656 507.023438 371.023438 498.683594 372.546875 C 490.171875 374.097656 486.335938 380.148438 488.367188 386.769531 C 490.878906 394.953125 497.292969 397.277344 511.308594 400.074219 L 519.464844 401.671875 C 547.207031 407.089844 564.246094 414.6875 571.234375 437.46875 C 578.765625 462.019531 562.34375 479.222656 534.753906 484.25 C 507.769531 489.167969 488.527344 479.1875 475.148438 464.925781 L 493.59375 446.460938 Z M 493.597656 446.464844 " fill-opacity="1" fill-rule="nonzero"/><path fill="#0b122d" d="M 521.417969 490.996094 C 502.144531 490.996094 484.96875 483.429688 471.144531 468.695312 C 469.113281 466.53125 469.164062 463.140625 471.265625 461.039062 L 489.710938 442.570312 C 491.789062 440.484375 495.140625 440.414062 497.3125 442.40625 C 506.328125 450.6875 514.148438 456.855469 525.671875 454.75 C 530.492188 453.875 533.910156 452.132812 535.292969 449.855469 C 536.109375 448.507812 536.222656 446.914062 535.628906 444.980469 C 533.789062 438.976562 529.464844 437.300781 514.457031 434.257812 L 506.339844 432.667969 C 484.316406 428.394531 462.804688 420.765625 454.640625 394.148438 C 451.296875 383.257812 452.4375 372.351562 457.851562 363.4375 C 464.089844 353.167969 475.648438 346.03125 490.398438 343.339844 C 511.460938 339.503906 528.25 344.511719 543.234375 359.121094 C 544.300781 360.160156 544.902344 361.589844 544.894531 363.078125 C 544.890625 364.570312 544.285156 365.992188 543.210938 367.027344 L 524.777344 384.792969 C 522.628906 386.863281 519.222656 386.84375 517.101562 384.742188 C 510.003906 377.707031 505.335938 376.929688 499.667969 377.964844 C 496.90625 378.464844 494.867188 379.597656 493.925781 381.140625 C 493.25 382.257812 493.144531 383.609375 493.621094 385.15625 C 495.0625 389.855469 497.835938 391.78125 512.382812 394.679688 L 520.519531 396.273438 C 549.300781 401.898438 568.707031 410.480469 576.488281 435.859375 C 580.03125 447.402344 578.996094 458.292969 573.492188 467.351562 C 566.699219 478.542969 553.292969 486.46875 535.742188 489.667969 C 530.859375 490.558594 526.078125 491 521.417969 491 Z M 482.941406 464.910156 C 496.960938 477.75 514.035156 482.4375 533.773438 478.835938 C 548.1875 476.210938 558.957031 470.101562 564.101562 461.632812 C 567.976562 455.246094 568.613281 447.660156 565.980469 439.089844 C 559.746094 418.769531 544.453125 412.160156 518.410156 407.074219 L 510.253906 405.476562 C 496.585938 402.75 486.652344 399.933594 483.113281 388.386719 C 481.71875 383.835938 482.222656 379.230469 484.53125 375.421875 C 487.125 371.152344 491.800781 368.210938 497.695312 367.132812 C 506.359375 365.558594 513.5 367.414062 520.832031 373.320312 L 531.324219 363.207031 C 520.058594 354.003906 508.109375 351.292969 492.363281 354.167969 C 480.746094 356.285156 471.824219 361.609375 467.242188 369.15625 C 463.425781 375.433594 462.703125 382.960938 465.140625 390.917969 C 471.246094 410.8125 486.863281 417.675781 508.433594 421.863281 L 516.601562 423.464844 C 530.304688 426.242188 542.109375 428.640625 546.132812 441.746094 C 547.660156 446.71875 547.15625 451.5 544.683594 455.574219 C 542.535156 459.113281 537.832031 463.71875 527.636719 465.578125 C 512.527344 468.324219 501.605469 460.832031 493.792969 454.042969 L 482.9375 464.90625 Z M 482.941406 464.910156 " fill-opacity="1" fill-rule="nonzero"/><path fill="#0b122d" d="M 389.5625 466.164062 C 396.472656 473.023438 405.207031 477.679688 415.160156 475.867188 C 424.679688 474.132812 429.070312 469.585938 424.839844 455.789062 L 397.261719 365.902344 L 427.25 360.4375 L 456.160156 454.667969 C 464.929688 483.25 451.347656 499.457031 425.683594 504.132812 C 402.496094 508.363281 381.214844 496.589844 370.171875 484.066406 L 389.5625 466.160156 Z M 389.5625 466.164062 " fill-opacity="1" fill-rule="nonzero"/><path fill="#0b122d" d="M 415.792969 510.535156 C 394.175781 510.535156 375.953125 498.941406 366.050781 487.710938 C 364.070312 485.464844 364.246094 482.050781 366.445312 480.023438 L 385.835938 462.121094 C 387.996094 460.125 391.339844 460.183594 393.429688 462.257812 C 400.195312 468.972656 407.175781 471.726562 414.175781 470.453125 C 417.527344 469.839844 419.601562 468.910156 420.347656 467.683594 C 420.941406 466.707031 421.632812 464.074219 419.585938 457.40625 L 392.007812 367.519531 C 391.546875 366.019531 391.75 364.390625 392.566406 363.046875 C 393.378906 361.703125 394.730469 360.773438 396.277344 360.492188 L 426.265625 355.023438 C 429.011719 354.523438 431.683594 356.15625 432.503906 358.824219 L 461.414062 453.054688 C 465.941406 467.8125 465.199219 480.296875 459.207031 490.164062 C 453.195312 500.058594 441.941406 506.765625 426.667969 509.550781 C 422.964844 510.226562 419.332031 510.535156 415.789062 510.535156 Z M 378.066406 484.261719 C 389.03125 494.300781 406.546875 502.027344 424.703125 498.71875 C 436.800781 496.515625 445.484375 491.578125 449.816406 484.441406 C 454.109375 477.378906 454.472656 467.90625 450.910156 456.28125 L 423.433594 366.722656 L 404.332031 370.207031 L 430.089844 454.171875 C 432.683594 462.621094 432.570312 468.730469 429.738281 473.398438 C 426.433594 478.839844 420.394531 480.5 416.144531 481.273438 C 407.019531 482.941406 397.933594 480.289062 389.621094 473.59375 L 378.070312 484.257812 Z M 378.066406 484.261719 " fill-opacity="1" fill-rule="nonzero"/><path fill="#fdf151" d="M 211.628906 256.332031 L 180.320312 307.742188 L 274.074219 613.328125 L 305.382812 561.917969 Z M 211.628906 256.332031 " fill-opacity="1" fill-rule="nonzero"/><g clip-path="url(#e969e6ee79)"><path fill="#0b122d" d="M 274.074219 618.832031 C 273.847656 618.832031 273.617188 618.816406 273.386719 618.789062 C 271.242188 618.519531 269.457031 617.015625 268.820312 614.945312 L 175.066406 309.355469 C 174.605469 307.851562 174.808594 306.21875 175.628906 304.875 L 206.9375 253.464844 C 208.0625 251.617188 210.15625 250.597656 212.3125 250.867188 C 214.457031 251.136719 216.246094 252.644531 216.878906 254.714844 L 310.632812 560.300781 C 311.097656 561.804688 310.894531 563.4375 310.074219 564.78125 L 278.765625 616.191406 C 277.757812 617.84375 275.972656 618.828125 274.074219 618.828125 Z M 186.300781 308.492188 L 275.738281 600.023438 L 299.402344 561.167969 L 209.964844 269.636719 Z M 186.300781 308.492188 " fill-opacity="1" fill-rule="nonzero"/></g><path fill="#fdf151" d="M 629.304688 502.867188 L 597.996094 554.28125 L 274.074219 613.328125 L 305.382812 561.917969 Z M 629.304688 502.867188 " fill-opacity="1" fill-rule="nonzero"/><path fill="#0b122d" d="M 274.074219 618.832031 C 272.285156 618.832031 270.578125 617.953125 269.542969 616.445312 C 268.316406 614.65625 268.253906 612.316406 269.382812 610.464844 L 300.691406 559.054688 C 301.507812 557.714844 302.855469 556.785156 304.398438 556.503906 L 628.320312 497.453125 C 630.449219 497.0625 632.609375 497.96875 633.832031 499.753906 C 635.058594 501.539062 635.121094 503.882812 633.992188 505.730469 L 602.6875 557.140625 C 601.867188 558.480469 600.519531 559.410156 598.976562 559.691406 L 275.058594 618.742188 C 274.730469 618.800781 274.402344 618.828125 274.074219 618.828125 Z M 308.792969 566.890625 L 285.144531 605.71875 L 594.585938 549.3125 L 618.230469 510.480469 Z M 308.792969 566.890625 " fill-opacity="1" fill-rule="nonzero"/></svg>